<?xml version="1.0" encoding="UTF-8" standalone="no"?>
<!-- Created with Inkscape (http://www.inkscape.org/) -->

<svg
        xmlns:dc="http://purl.org/dc/elements/1.1/"
        xmlns:cc="http://creativecommons.org/ns#"
        xmlns:rdf="http://www.w3.org/1999/02/22-rdf-syntax-ns#"
        xmlns="http://www.w3.org/2000/svg"
        xmlns:sodipodi="http://sodipodi.sourceforge.net/DTD/sodipodi-0.dtd"
        xmlns:inkscape="http://www.inkscape.org/namespaces/inkscape"
        width="130"
        height="50"
        viewBox="0 0 130.00001 49.999997"
        id="svg2"
        version="1.1"
        inkscape:version="0.91 r13725"
        sodipodi:docname="ncms-logo2.svg"
        inkscape:export-filename="/home/adam/Projects/softmotions/ncms/ncms-docs/ncms-docs-ru/ncms.png"
        inkscape:export-xdpi="89.569145"
        inkscape:export-ydpi="89.569145">
  <defs
     id="defs4" />
  <sodipodi:namedview
     id="base"
     pagecolor="#ffffff"
     bordercolor="#666666"
     borderopacity="1.0"
     inkscape:pageopacity="0.0"
     inkscape:pageshadow="2"
     inkscape:zoom="5.6568543"
     inkscape:cx="51.330772"
     inkscape:cy="-0.21303269"
     inkscape:document-units="px"
     inkscape:current-layer="layer1"
     showgrid="false"
     units="px"
     inkscape:window-width="1325"
     inkscape:window-height="744"
     inkscape:window-x="41"
     inkscape:window-y="24"
     inkscape:window-maximized="1"
     inkscape:snap-grids="true">
    <inkscape:grid
       type="xygrid"
       id="grid4148" />
  </sodipodi:namedview>
  <metadata
     id="metadata7">
    <rdf:RDF>
      <cc:Work
         rdf:about="">
        <dc:format>image/svg+xml</dc:format>
        <dc:type
           rdf:resource="http://purl.org/dc/dcmitype/StillImage" />
        <dc:title />
      </cc:Work>
    </rdf:RDF>
  </metadata>
  <g
     inkscape:label="Layer 1"
     inkscape:groupmode="layer"
     id="layer1"
     transform="translate(0,-1002.3623)">
    <path
       style="fill:#0b936d;fill-opacity:1"
       d="M 0 0 L 5 30 L 0 50 L 130 50 L 130 0 L 0 0 z "
       id="rect4261"
       transform="translate(0,1002.3623)" />
    <path
       style="font-style:normal;font-weight:normal;font-size:40px;line-height:125%;font-family:sans-serif;letter-spacing:0px;word-spacing:0px;fill:#f9f9f9;fill-opacity:1;stroke:none;stroke-width:1px;stroke-linecap:butt;stroke-linejoin:miter;stroke-opacity:1"
       d="M 52.289062 14.720703 C 50.742396 14.720703 49.275338 15.027292 47.888672 15.640625 C 46.502005 16.253958 45.29 17.159375 44.25 18.359375 C 43.21 19.559375 42.382865 21.053177 41.769531 22.839844 C 41.156198 24.599844 40.849609 26.640938 40.849609 28.960938 C 40.849609 31.280937 41.129453 33.332474 41.689453 35.119141 C 42.27612 36.879141 43.076511 38.372943 44.089844 39.599609 C 45.103177 40.799609 46.315182 41.706979 47.728516 42.320312 C 49.141849 42.933646 50.676745 43.240234 52.330078 43.240234 C 54.250078 43.240234 55.863255 42.933646 57.169922 42.320312 C 58.503255 41.706979 59.595886 40.986823 60.449219 40.160156 L 58.490234 37.679688 C 57.796901 38.293021 56.982161 38.840313 56.048828 39.320312 C 55.115495 39.800312 53.930234 40.039062 52.490234 40.039062 C 51.423568 40.039062 50.423568 39.839453 49.490234 39.439453 C 48.556901 39.012786 47.742161 38.360469 47.048828 37.480469 C 46.382162 36.600469 45.849219 35.466745 45.449219 34.080078 C 45.075885 32.666745 44.888672 30.960937 44.888672 28.960938 C 44.888672 26.880938 45.090234 25.134036 45.490234 23.720703 C 45.916901 22.30737 46.476589 21.173646 47.169922 20.320312 C 47.863255 19.440313 48.676042 18.812786 49.609375 18.439453 C 50.542708 18.039453 51.515964 17.839844 52.529297 17.839844 C 54.529297 17.839844 56.342084 18.520859 57.96875 19.880859 L 60.048828 17.439453 C 59.515495 17.012786 58.970156 16.625964 58.410156 16.279297 C 57.876823 15.93263 57.302786 15.652786 56.689453 15.439453 C 56.07612 15.199453 55.409453 15.026589 54.689453 14.919922 C 53.969453 14.786589 53.169062 14.720703 52.289062 14.720703 z M 101.9375 14.720703 C 100.6575 14.720703 99.482682 14.893568 98.416016 15.240234 C 97.349349 15.586901 96.429583 16.080703 95.65625 16.720703 C 94.909583 17.360703 94.323151 18.12 93.896484 19 C 93.469818 19.88 93.257812 20.853255 93.257812 21.919922 C 93.257813 22.986588 93.430677 23.933099 93.777344 24.759766 C 94.12401 25.559766 94.630208 26.279922 95.296875 26.919922 C 95.990208 27.533255 96.844089 28.080547 97.857422 28.560547 C 98.897422 29.040547 100.08268 29.480859 101.41602 29.880859 C 102.56268 30.254193 103.52354 30.614271 104.29688 30.960938 C 105.07021 31.307604 105.68339 31.692474 106.13672 32.119141 C 106.59005 32.519141 106.91099 32.973802 107.09766 33.480469 C 107.28432 33.987135 107.37695 34.559219 107.37695 35.199219 C 107.37695 36.025885 107.21648 36.746042 106.89648 37.359375 C 106.60315 37.972708 106.17719 38.493255 105.61719 38.919922 C 105.08385 39.319922 104.45633 39.62651 103.73633 39.839844 C 103.01633 40.02651 102.25703 40.119141 101.45703 40.119141 C 99.937031 40.119141 98.603698 39.866042 97.457031 39.359375 C 96.310365 38.852708 95.269271 38.146901 94.335938 37.240234 L 92.136719 39.679688 C 93.283385 40.799687 94.631068 41.680313 96.177734 42.320312 C 97.751068 42.933646 99.549505 43.240234 101.57617 43.240234 C 103.09617 43.240234 104.45625 43.040625 105.65625 42.640625 C 106.88292 42.240625 107.90966 41.680937 108.73633 40.960938 C 109.58966 40.240938 110.22958 39.387057 110.65625 38.400391 C 111.10958 37.387057 111.33594 36.280078 111.33594 35.080078 C 111.33594 33.773412 111.10958 32.666432 110.65625 31.759766 C 110.22958 30.826432 109.64315 30.052786 108.89648 29.439453 C 108.14982 28.799453 107.28354 28.280859 106.29688 27.880859 C 105.31021 27.454193 104.27107 27.06737 103.17773 26.720703 C 101.9244 26.34737 100.91005 25.987292 100.13672 25.640625 C 99.363386 25.293958 98.750208 24.93388 98.296875 24.560547 C 97.843542 24.160547 97.536953 23.746979 97.376953 23.320312 C 97.216953 22.866979 97.136719 22.346432 97.136719 21.759766 C 97.136719 20.426432 97.616172 19.440781 98.576172 18.800781 C 99.536172 18.160781 100.71099 17.839844 102.09766 17.839844 C 103.27099 17.839844 104.34927 18.039453 105.33594 18.439453 C 106.34927 18.812786 107.33688 19.440313 108.29688 20.320312 L 110.45703 17.919922 C 109.33703 16.879922 108.11068 16.09388 106.77734 15.560547 C 105.47068 15.000547 103.8575 14.720703 101.9375 14.720703 z M 64.941406 15.199219 L 62.662109 42.759766 L 66.261719 42.759766 L 67.341797 28.640625 C 67.421797 27.760625 67.475286 26.82651 67.501953 25.839844 C 67.555286 24.853177 67.594427 23.933411 67.621094 23.080078 C 67.64776 22.200078 67.662109 21.440781 67.662109 20.800781 C 67.688776 20.160781 67.701172 19.720469 67.701172 19.480469 L 67.861328 19.480469 L 74.261719 39.839844 L 77.902344 39.839844 L 84.0625 19.480469 L 84.222656 19.480469 L 84.222656 20.759766 C 84.249323 21.373099 84.276068 22.107604 84.302734 22.960938 C 84.356068 23.787604 84.407604 24.70737 84.460938 25.720703 C 84.514271 26.70737 84.582109 27.680625 84.662109 28.640625 L 85.861328 42.759766 L 89.541016 42.759766 L 87.261719 15.199219 L 82.101562 15.199219 L 76.261719 35.320312 L 76.101562 35.320312 L 70.0625 15.199219 L 64.941406 15.199219 z M 22.103516 21.199219 L 18.664062 21.679688 C 18.904062 22.533021 19.130417 23.533021 19.34375 24.679688 C 19.58375 25.826354 19.703125 27.093802 19.703125 28.480469 L 19.703125 42.759766 L 23.382812 42.759766 L 23.382812 27.480469 C 23.649479 27.080469 23.970417 26.679297 24.34375 26.279297 C 24.717083 25.85263 25.116302 25.480156 25.542969 25.160156 C 25.996302 24.840156 26.475755 24.587057 26.982422 24.400391 C 27.515755 24.187057 28.063047 24.080078 28.623047 24.080078 C 29.39638 24.080078 29.997162 24.187057 30.423828 24.400391 C 30.877161 24.613724 31.210495 24.959453 31.423828 25.439453 C 31.637161 25.892786 31.768932 26.479219 31.822266 27.199219 C 31.875599 27.919219 31.902344 28.799844 31.902344 29.839844 L 31.902344 50.011719 L 35.583984 50.011719 L 35.583984 27.439453 C 35.583984 25.46612 35.143672 23.933177 34.263672 22.839844 C 33.383672 21.74651 31.916614 21.199219 29.863281 21.199219 C 28.609948 21.199219 27.395989 21.493411 26.222656 22.080078 C 25.049323 22.640078 23.995833 23.506354 23.0625 24.679688 C 23.009167 24.146354 22.889792 23.533177 22.703125 22.839844 C 22.516458 22.119844 22.316849 21.572552 22.103516 21.199219 z "
       transform="translate(0,1002.3623)"
       id="text3336" />
    <path
       style="fill:none;fill-rule:evenodd;stroke:none;stroke-width:1px;stroke-linecap:butt;stroke-linejoin:miter;stroke-opacity:1"
       d="m 130,1002.4069 -13.07484,26.4694 10.10152,11.8692 -10.54346,11.6799 14.14213,-0.032 -0.0631,-49.8447 z"
       id="path3344"
       inkscape:connector-curvature="0" />
    <path
       style="fill:none;fill-rule:evenodd;stroke:none;stroke-width:1px;stroke-linecap:butt;stroke-linejoin:miter;stroke-opacity:1"
       d="m 130,1002.3623 -2,30 2,20 z"
       id="path4150"
       inkscape:connector-curvature="0" />
    <path
       style="fill:none;fill-rule:evenodd;stroke:none;stroke-width:1px;stroke-linecap:butt;stroke-linejoin:miter;stroke-opacity:1"
       d="m 128,1002.3623 2,5 -2,42 2,3 0,-50 z"
       id="path4155"
       inkscape:connector-curvature="0" />
    <path
       style="fill:none;fill-rule:evenodd;stroke:none;stroke-width:1px;stroke-linecap:butt;stroke-linejoin:miter;stroke-opacity:1"
       d="m 130,1002.3623 -5,25 5,25 z"
       id="path4158"
       inkscape:connector-curvature="0" />
  </g>
</svg>
